<?xml version="1.0" encoding="UTF-8"?>
<svg id="Layer_2" data-name="Layer 2" xmlns="http://www.w3.org/2000/svg" viewBox="0 0 556 510">
  <defs>
    <style>
      .cls-1 {
        fill: #8b8e7c;
      }

      .cls-1, .cls-2, .cls-3, .cls-4, .cls-5, .cls-6, .cls-7, .cls-8 {
        stroke-width: 0px;
      }

      .cls-9 {
        letter-spacing: 0em;
      }

      .cls-2 {
        fill: #517820;
      }

      .cls-10 {
        fill: #fff;
        stroke: #6cbe45;
        stroke-miterlimit: 10;
      }

      .cls-3 {
        fill: #5a997e;
      }

      .cls-4 {
        fill: #7fb036;
      }

      .cls-11 {
        letter-spacing: 0em;
      }

      .cls-5 {
        fill: #272423;
      }

      .cls-12 {
        letter-spacing: -.01em;
      }

      .cls-13 {
        letter-spacing: 0em;
      }

      .cls-14 {
        letter-spacing: -.02em;
      }

      .cls-15 {
        letter-spacing: -.01em;
      }

      .cls-6 {
        fill: #8c8d38;
      }

      .cls-16 {
        letter-spacing: -.02em;
      }

      .cls-17 {
        letter-spacing: 0em;
      }

      .cls-18 {
        letter-spacing: -.01em;
      }

      .cls-19 {
        letter-spacing: -.06em;
      }

      .cls-20 {
        letter-spacing: 0em;
      }

      .cls-7 {
        fill: #d2e58c;
      }

      .cls-8 {
        fill: #27454f;
      }

      .cls-21 {
        font-family: Montserrat-Regular, Montserrat;
        font-size: 18px;
      }

      .cls-22 {
        letter-spacing: 0em;
      }

      .cls-23 {
        letter-spacing: 0em;
      }
    </style>
  </defs>
  <g id="Layer_1-2" data-name="Layer 1">
    <g>
      <rect class="cls-10" x=".5" y=".5" width="555" height="509" rx="20.84" ry="20.84"/>
      <g>
        <path class="cls-4" d="m68.43,474.93c-.08-1.46.31-2.78,1.03-4.03,1-1.75,2.2-3.33,3.64-4.74,1.25-1.22,2.24-2.63,2.69-4.35.41-1.57.42-3.16.01-4.72-.81-3.14-2.71-5.39-5.66-6.75-3.07-1.42-6.15-1.35-9.14.17-4.15,2.11-6.2,6.72-5.03,11.1.71,2.66,2.42,4.41,5.03,5.43,2.69,1.06,4.69,2.97,5.83,5.69.47,1.12.63,2.29.65,3.49.02,1.39,0,2.77,0,4.16,0,.27-.08.31-.32.23-1.25-.44-2.48-.93-3.67-1.53-.25-.12-.27-.29-.24-.53.12-1.12.13-2.25-.22-3.34-.63-1.9-1.89-3.22-3.77-3.95-1.12-.43-2.27-.79-3.28-1.47-2.38-1.61-4.01-3.79-4.84-6.54-1.3-4.29-.59-8.33,1.7-12.13,1.21-2.01,2.9-3.54,4.88-4.78,1.6-1,3.32-1.68,5.17-2.05,1.63-.33,3.27-.35,4.92-.12,2.77.38,5.28,1.38,7.48,3.12,2.76,2.19,4.73,4.92,5.57,8.38.5,2.06.56,4.14.12,6.23-.49,2.34-1.47,4.44-3.06,6.24-.63.71-1.36,1.32-2.13,1.89-1.31.97-2.28,2.21-2.74,3.79-.12.4-.18.8-.19,1.22-.05,1.98.07,5.49.14,7.47,0,.11,0,.23,0,.34,0,.56,0,.56-.54.5-1.18-.13-2.49-.33-3.65-.6-.27-.06-.38-.17-.38-.45.01-1.16.02-3.84.02-5,0,0,.02-1.58-.02-2.37Z"/>
        <path class="cls-2" d="m77.53,477.34c-.07-1.61.25-3.14,1.08-4.54.87-1.46,2.11-2.53,3.59-3.35.8-.44,1.67-.63,2.54-.82,2.18-.47,3.98-1.51,5.1-3.5,1.34-2.38,1.32-4.77-.17-7.08-1.33-2.06-3.29-3.04-5.74-3.05-.35,0-.71,0-1.06.02-.21.01-.32-.04-.35-.26-.18-1.05-.48-2.07-.82-3.08-.08-.22.01-.28.21-.31.64-.08,1.28-.1,1.92-.04,1.73.15,3.4.55,4.88,1.49,3.21,2.03,5.07,4.9,5.16,8.76.07,2.86-.83,5.41-2.7,7.58-1.44,1.67-3.23,2.81-5.4,3.32-.83.19-1.61.53-2.32,1.01-1.3.88-1.92,2.15-2.01,3.68-.02.38-.14.56-.51.68-.97.31-1.93.66-2.89,1-.47.16-.49.15-.51-.35-.01-.39,0-.78,0-1.17Z"/>
        <path class="cls-4" d="m115.57,470.11v8.73h-5.35v-7.86c0-2.2-.96-3.13-2.51-3.13-1.72,0-3.04,1.07-3.04,3.6v7.38h-5.35v-20.47c0-.23.19-.42.42-.42h4.5c.23,0,.42.19.42.42v6.61c1.18-1.1,2.79-1.66,4.59-1.66,3.58,0,6.31,2.06,6.31,6.79Z"/>
        <path class="cls-4" d="m133.23,470.36v8.48h-4.98v-1.97c-.76,1.46-2.28,2.22-4.51,2.22-3.66,0-5.69-2.06-5.69-4.7,0-2.82,2.06-4.56,6.79-4.56h3.04c-.08-1.55-1.13-2.42-3.24-2.42-1.3,0-2.72.4-3.76,1.05-.21.13-.49.05-.6-.17l-1.58-3.19c1.75-1.15,4.34-1.77,6.73-1.77,4.96,0,7.8,2.2,7.8,7.04Zm-5.35,3.58v-1.32h-2.31c-1.72,0-2.34.62-2.34,1.55s.73,1.55,2,1.55c1.18,0,2.22-.56,2.65-1.77Z"/>
        <path class="cls-4" d="m153.7,471.18c0,4.87-3.35,7.91-7.49,7.91-2,0-3.49-.56-4.51-1.77v1.52h-5.1v-20.47c0-.23.19-.42.42-.42h4.5c.23,0,.42.19.42.42v6.53c1.04-1.07,2.48-1.58,4.25-1.58,4.14,0,7.49,3.01,7.49,7.86Zm-5.41,0c0-2.31-1.41-3.6-3.21-3.6s-3.21,1.3-3.21,3.6,1.41,3.66,3.21,3.66,3.21-1.32,3.21-3.66Z"/>
        <path class="cls-4" d="m156.6,463.57l4.5.85c.23,0,.42.19.42.42v13.99h-5.35v-14.84c0-.23.19-.42.42-.42Z"/>
        <path class="cls-2" d="m170.91,464.16h3.63v3.99h-3.49v10.68h-5.34v-10.68h-2.22v-3.99h2.22v-.39c0-3.65,2.28-6.04,6.35-6.04,1.29,0,2.67.25,3.54.79l-1.16,3.32c-.08.23-.34.34-.57.25-.37-.15-.79-.25-1.19-.25-1.12,0-1.77.65-1.77,2v.34Z"/>
        <path class="cls-2" d="m190.51,470.46v8.46h-4.98v-1.97c-.76,1.46-2.28,2.22-4.5,2.22-3.66,0-5.68-2.05-5.68-4.7,0-2.81,2.05-4.55,6.78-4.55h3.04c-.08-1.55-1.12-2.42-3.23-2.42-1.29,0-2.72.4-3.75,1.05-.21.13-.49.05-.6-.17l-1.58-3.18c1.74-1.15,4.33-1.77,6.72-1.77,4.95,0,7.79,2.19,7.79,7.03Zm-5.34,3.57v-1.32h-2.31c-1.72,0-2.33.62-2.33,1.55s.73,1.55,2,1.55c1.18,0,2.22-.56,2.64-1.77Z"/>
        <path class="cls-2" d="m204.08,463.34v4.34c0,.25-.22.44-.46.42s-.49-.04-.74-.04c-2.16,0-3.66,1.1-3.66,3.77v7h-5.34v-15.24h4.66c.23,0,.42.19.42.42v1.4c1.1-1.38,2.87-2.08,5.12-2.08Z"/>
        <path class="cls-2" d="m232.28,470.12v8.72h-5.34v-7.84c0-2.19-.9-3.12-2.31-3.12-1.55,0-2.67,1.04-2.67,3.4v7.56h-5.34v-7.84c0-2.19-.87-3.12-2.31-3.12-1.57,0-2.7,1.04-2.7,3.4v7.56h-5.34v-15.24h4.66c.23,0,.42.19.42.42v1.18c1.15-1.24,2.76-1.86,4.55-1.86,2.08,0,3.85.76,4.92,2.39,1.21-1.52,3.09-2.39,5.29-2.39,3.54,0,6.16,2.05,6.16,6.78Z"/>
      </g>
      <g>
        <circle class="cls-4" cx="90.5" cy="112" r="40"/>
        <circle class="cls-2" cx="90.5" cy="238" r="40"/>
        <text class="cls-21" transform="translate(56.29 50.94)"><tspan x="0" y="0">7FB</tspan><tspan class="cls-13" x="35.57" y="0">0</tspan><tspan class="cls-20" x="47.3" y="0">36</tspan></text>
        <text class="cls-21" transform="translate(60.25 310.94)"><tspan x="0" y="0">51</tspan><tspan class="cls-14" x="16.69" y="0">7</tspan><tspan class="cls-9" x="26.95" y="0">8</tspan><tspan class="cls-22" x="38.43" y="0">2</tspan><tspan x="48.58" y="0">0</tspan></text>
        <circle class="cls-1" cx="215.5" cy="112" r="40"/>
        <circle class="cls-8" cx="215.5" cy="238" r="40"/>
        <text class="cls-21" transform="translate(179.68 50.94)"><tspan x="0" y="0">8B8</tspan><tspan class="cls-23" x="36.54" y="0">E</tspan><tspan class="cls-14" x="48.44" y="0">7</tspan><tspan class="cls-20" x="58.7" y="0">C</tspan></text>
        <text class="cls-21" transform="translate(183.06 310.94)"><tspan class="cls-11" x="0" y="0">2</tspan><tspan class="cls-19" x="10.15" y="0">7</tspan><tspan class="cls-11" x="19.58" y="0">4</tspan><tspan x="31.41" y="0">54F</tspan></text>
        <circle class="cls-6" cx="340.5" cy="112" r="40"/>
        <circle class="cls-7" cx="340.5" cy="238" r="40"/>
        <text class="cls-21" transform="translate(304.52 50.94)"><tspan x="0" y="0">8</tspan><tspan class="cls-12" x="11.48" y="0">C</tspan><tspan x="24.17" y="0">8</tspan><tspan class="cls-15" x="35.66" y="0">D</tspan><tspan x="50.33" y="0">38</tspan></text>
        <text class="cls-21" transform="translate(304.79 310.94)"><tspan class="cls-18" x="0" y="0">D</tspan><tspan class="cls-9" x="14.69" y="0">2</tspan><tspan class="cls-17" x="24.91" y="0">E</tspan><tspan class="cls-9" x="36.81" y="0">58C</tspan></text>
        <circle class="cls-3" cx="465.5" cy="112" r="40"/>
        <circle class="cls-5" cx="465.5" cy="238" r="40"/>
        <text class="cls-21" transform="translate(431.87 50.94)"><tspan x="0" y="0">5</tspan><tspan class="cls-12" x="10.19" y="0">A</tspan><tspan x="22.84" y="0">9</tspan><tspan class="cls-23" x="33.8" y="0">9</tspan><tspan x="44.62" y="0">7E</tspan></text>
        <text class="cls-21" transform="translate(434.12 310.94)"><tspan class="cls-11" x="0" y="0">2</tspan><tspan x="10.15" y="0">7</tspan><tspan class="cls-16" x="20.75" y="0">2</tspan><tspan class="cls-11" x="30.56" y="0">4</tspan><tspan x="42.39" y="0">23</tspan></text>
      </g>
    </g>
  </g>
</svg>