<?xml version="1.0" encoding="UTF-8"?>
<svg id="Layer_2" data-name="Layer 2" xmlns="http://www.w3.org/2000/svg" viewBox="0 0 1071.54 231.99">
  <defs>
    <style>
      .cls-1 {
        fill: #fff;
        stroke-width: 0px;
      }
    </style>
  </defs>
  <g id="Layer_1-2" data-name="Layer 1">
    <g>
      <path class="cls-1" d="m105.69,182.18c-.48-8.59,1.84-16.36,6.05-23.76,5.87-10.32,12.97-19.64,21.46-27.96,7.37-7.22,13.2-15.5,15.87-25.66,2.43-9.27,2.45-18.6.07-27.84-4.76-18.54-15.99-31.79-33.34-39.8-18.09-8.35-36.25-7.99-53.87.99-24.44,12.45-36.56,39.59-29.65,65.46,4.19,15.71,14.29,25.98,29.65,32.03,15.85,6.25,27.65,17.49,34.37,33.53,2.76,6.58,3.71,13.52,3.81,20.57.11,8.17,0,16.34.05,24.5.01,1.58-.46,1.84-1.87,1.34-7.39-2.58-14.63-5.51-21.65-9-1.45-.72-1.58-1.74-1.43-3.15.73-6.63.77-13.29-1.32-19.66-3.69-11.21-11.11-18.98-22.22-23.3-6.58-2.56-13.39-4.63-19.34-8.65-14.05-9.49-23.65-22.36-28.54-38.54C-3.84,88,.32,64.21,13.81,41.83c7.14-11.84,17.08-20.87,28.78-28.16,9.46-5.89,19.59-9.9,30.48-12.07,9.62-1.92,19.29-2.06,29-.72,16.31,2.25,31.12,8.16,44.07,18.41,16.28,12.89,27.88,28.99,32.82,49.39,2.94,12.15,3.29,24.43.7,36.74-2.89,13.8-8.69,26.16-18.06,36.76-3.72,4.21-8.03,7.78-12.53,11.12-7.74,5.75-13.43,13-16.18,22.36-.69,2.34-1.04,4.73-1.1,7.18-.32,11.69.44,32.37.81,44.04.02.67.03,1.35.03,2.02.03,3.32.03,3.3-3.18,2.94-6.98-.79-14.7-1.94-21.54-3.54-1.59-.37-2.23-.97-2.21-2.68.09-6.81.11-22.65.11-29.46,0,0,.13-9.32-.13-13.97Z"/>
      <path class="cls-1" d="m159.34,196.38c-.39-9.51,1.45-18.51,6.36-26.77,5.13-8.63,12.43-14.92,21.15-19.73,4.69-2.59,9.82-3.7,14.96-4.81,12.84-2.77,23.47-8.88,30.07-20.6,7.9-14.03,7.8-28.13-.98-41.73-7.86-12.17-19.39-17.91-33.81-17.97-2.09,0-4.19.03-6.27.15-1.21.07-1.86-.26-2.08-1.55-1.06-6.2-2.83-12.21-4.86-18.15-.45-1.32.08-1.66,1.26-1.8,3.77-.45,7.55-.57,11.32-.24,10.2.88,20.04,3.26,28.77,8.77,18.94,11.97,29.87,28.86,30.44,51.65.42,16.88-4.92,31.91-15.93,44.7-8.48,9.85-19.04,16.59-31.85,19.55-4.91,1.13-9.49,3.11-13.66,5.94-7.65,5.2-11.33,12.66-11.85,21.71-.13,2.25-.82,3.3-2.98,3.98-5.72,1.81-11.35,3.9-17.01,5.89-2.75.96-2.92.89-3.02-2.09-.08-2.29-.02-4.59-.02-6.88Z"/>
      <path class="cls-1" d="m383.58,153.77v51.45h-31.53v-46.31c0-12.95-5.64-18.42-14.77-18.42-10.12,0-17.92,6.31-17.92,21.24v43.48h-31.53v-120.65c0-1.38,1.12-2.5,2.5-2.5h26.53c1.38,0,2.5,1.12,2.5,2.5v38.99c6.97-6.47,16.43-9.79,27.05-9.79,21.08,0,37.18,12.12,37.18,40Z"/>
      <path class="cls-1" d="m487.64,155.26v49.96h-29.38v-11.62c-4.48,8.63-13.44,13.11-26.56,13.11-21.58,0-33.53-12.12-33.53-27.72,0-16.6,12.12-26.89,40-26.89h17.92c-.5-9.13-6.64-14.27-19.09-14.27-7.64,0-16.06,2.34-22.15,6.22-1.24.79-2.89.29-3.54-1.02l-9.33-18.8c10.29-6.8,25.56-10.46,39.67-10.46,29.21,0,45.97,12.95,45.97,41.49Zm-31.53,21.08v-7.8h-13.61c-10.12,0-13.78,3.65-13.78,9.13s4.31,9.13,11.78,9.13c6.97,0,13.11-3.32,15.6-10.46Z"/>
      <path class="cls-1" d="m608.3,160.08c0,28.71-19.75,46.64-44.15,46.64-11.78,0-20.58-3.32-26.56-10.46v8.96h-30.04v-120.65c0-1.38,1.12-2.5,2.5-2.5h26.53c1.38,0,2.5,1.12,2.5,2.5v38.49c6.14-6.31,14.61-9.29,25.06-9.29,24.4,0,44.15,17.76,44.15,46.31Zm-31.87,0c0-13.61-8.3-21.24-18.92-21.24s-18.92,7.63-18.92,21.24,8.3,21.58,18.92,21.58,18.92-7.8,18.92-21.58Z"/>
      <path class="cls-1" d="m625.4,115.26l26.53,5c1.38,0,2.5,1.12,2.5,2.5v82.46h-31.53v-87.46c0-1.38,1.12-2.5,2.5-2.5Z"/>
      <path class="cls-1" d="m709.77,118.71h21.38v23.53h-20.55v62.98h-31.49v-62.98h-13.09v-23.53h13.09v-2.32c0-21.54,13.42-35.63,37.45-35.63,7.62,0,15.74,1.49,20.88,4.64l-6.87,19.58c-.48,1.36-2,2.02-3.33,1.47-2.18-.89-4.65-1.49-7.04-1.49-6.63,0-10.44,3.81-10.44,11.77v1.99Z"/>
      <path class="cls-1" d="m825.28,155.85v49.88h-29.33v-11.6c-4.47,8.62-13.42,13.09-26.52,13.09-21.54,0-33.48-12.1-33.48-27.68,0-16.57,12.1-26.85,39.94-26.85h17.9c-.5-9.12-6.63-14.25-19.06-14.25-7.63,0-16.03,2.34-22.11,6.2-1.24.79-2.89.29-3.54-1.02l-9.31-18.77c10.27-6.79,25.52-10.44,39.61-10.44,29.17,0,45.91,12.93,45.91,41.43Zm-31.49,21.05v-7.79h-13.59c-10.11,0-13.75,3.65-13.75,9.11s4.31,9.12,11.77,9.12c6.96,0,13.09-3.31,15.58-10.44Z"/>
      <path class="cls-1" d="m905.32,113.91v25.56c0,1.47-1.27,2.62-2.74,2.49s-2.89-.21-4.39-.21c-12.76,0-21.54,6.46-21.54,22.21v41.27h-31.49v-89.82h27.5c1.38,0,2.5,1.12,2.5,2.5v8.27c6.46-8.12,16.9-12.26,30.16-12.26Z"/>
      <path class="cls-1" d="m1071.54,153.85v51.38h-31.49v-46.24c0-12.93-5.3-18.4-13.59-18.4-9.12,0-15.74,6.13-15.74,20.05v44.58h-31.49v-46.24c0-12.93-5.14-18.4-13.59-18.4-9.28,0-15.91,6.13-15.91,20.05v44.58h-31.49v-89.82h27.5c1.38,0,2.5,1.12,2.5,2.5v6.95c6.79-7.29,16.24-10.94,26.85-10.94,12.26,0,22.7,4.47,29,14.09,7.13-8.95,18.23-14.09,31.16-14.09,20.88,0,36.29,12.1,36.29,39.94Z"/>
    </g>
  </g>
</svg>