<?xml version="1.0" encoding="UTF-8"?>
<svg id="Layer_2" data-name="Layer 2" xmlns="http://www.w3.org/2000/svg" viewBox="0 0 783.72 422.89">
  <defs>
    <style>
      .cls-1 {
        fill: #fff;
        stroke-width: 0px;
      }
    </style>
  </defs>
  <g id="Layer_1-2" data-name="Layer 1">
    <g>
      <path class="cls-1" d="m333.8,242.39c-.64-11.44,2.45-21.77,8.05-31.61,7.81-13.73,17.26-26.13,28.56-37.19,9.8-9.61,17.56-20.62,21.11-34.13,3.24-12.33,3.25-24.75.1-37.04-6.33-24.66-21.28-42.29-44.36-52.95-24.07-11.12-48.23-10.62-71.67,1.31-32.52,16.56-48.64,52.67-39.45,87.09,5.58,20.9,19.01,34.56,39.45,42.62,21.09,8.31,36.79,23.28,45.73,44.61,3.67,8.76,4.93,17.99,5.06,27.37.15,10.87,0,21.73.07,32.6.02,2.1-.61,2.44-2.49,1.78-9.84-3.43-19.47-7.33-28.8-11.97-1.93-.96-2.1-2.31-1.9-4.19.97-8.82,1.03-17.68-1.76-26.16-4.91-14.92-14.78-25.25-29.56-30.99-8.75-3.4-17.82-6.16-25.73-11.5-18.7-12.63-31.46-29.74-37.97-51.28-10.17-33.67-4.63-65.33,13.31-95.1,9.5-15.76,22.73-27.77,38.29-37.46,12.58-7.84,26.06-13.17,40.55-16.06,12.8-2.55,25.67-2.75,38.59-.96,21.71,2.99,41.41,10.85,58.64,24.49,21.66,17.15,37.1,38.56,43.67,65.71,3.92,16.17,4.37,32.5.94,48.88-3.85,18.36-11.56,34.81-24.03,48.91-4.95,5.6-10.68,10.35-16.68,14.79-10.3,7.64-17.87,17.3-21.53,29.75-.91,3.11-1.38,6.3-1.47,9.55-.42,15.55.59,43.06,1.08,58.59.03.9.04,1.8.04,2.69.04,4.42.04,4.39-4.23,3.91-9.28-1.05-19.56-2.58-28.66-4.71-2.11-.5-2.97-1.3-2.94-3.56.12-9.07.15-30.13.15-39.2,0,0,.17-12.41-.17-18.58Z"/>
      <path class="cls-1" d="m405.18,261.28c-.52-12.66,1.92-24.63,8.46-35.62,6.83-11.49,16.54-19.86,28.14-26.26,6.25-3.45,13.06-4.92,19.91-6.4,17.08-3.68,31.22-11.81,40.01-27.41,10.51-18.66,10.38-37.42-1.3-55.52-10.45-16.19-25.8-23.83-44.99-23.91-2.78-.01-5.57.04-8.35.19-1.61.09-2.48-.35-2.77-2.07-1.41-8.25-3.77-16.24-6.47-24.15-.6-1.76.11-2.21,1.67-2.39,5.01-.59,10.04-.76,15.06-.32,13.57,1.18,26.67,4.33,38.27,11.67,25.19,15.92,39.74,38.4,40.5,68.72.56,22.46-6.54,42.45-21.19,59.47-11.28,13.1-25.34,22.07-42.38,26.01-6.53,1.51-12.62,4.14-18.17,7.91-10.18,6.92-15.07,16.85-15.77,28.89-.17,2.99-1.09,4.38-3.97,5.3-7.61,2.41-15.1,5.19-22.63,7.83-3.66,1.28-3.88,1.19-4.02-2.78-.1-3.05-.02-6.11-.02-9.16Z"/>
      <path class="cls-1" d="m95.76,369.44v51.45h-31.53v-46.31c0-12.95-5.64-18.42-14.77-18.42-10.12,0-17.92,6.31-17.92,21.24v43.48H0v-120.65c0-1.38,1.12-2.5,2.5-2.5h26.53c1.38,0,2.5,1.12,2.5,2.5v38.99c6.97-6.47,16.43-9.79,27.05-9.79,21.08,0,37.18,12.12,37.18,40Z"/>
      <path class="cls-1" d="m199.82,370.93v49.96h-29.38v-11.62c-4.48,8.63-13.44,13.11-26.56,13.11-21.58,0-33.53-12.12-33.53-27.72,0-16.6,12.12-26.89,40-26.89h17.92c-.5-9.13-6.64-14.27-19.09-14.27-7.64,0-16.06,2.34-22.15,6.22-1.24.79-2.89.29-3.54-1.02l-9.33-18.8c10.29-6.8,25.56-10.46,39.67-10.46,29.21,0,45.97,12.95,45.97,41.49Zm-31.53,21.08v-7.8h-13.61c-10.12,0-13.78,3.65-13.78,9.13s4.31,9.13,11.78,9.13c6.97,0,13.11-3.32,15.6-10.46Z"/>
      <path class="cls-1" d="m320.48,375.75c0,28.71-19.75,46.64-44.15,46.64-11.78,0-20.58-3.32-26.56-10.46v8.96h-30.04v-120.65c0-1.38,1.12-2.5,2.5-2.5h26.53c1.38,0,2.5,1.12,2.5,2.5v38.49c6.14-6.31,14.61-9.29,25.06-9.29,24.4,0,44.15,17.76,44.15,46.31Zm-31.87,0c0-13.61-8.3-21.24-18.92-21.24s-18.92,7.63-18.92,21.24,8.3,21.58,18.92,21.58,18.92-7.8,18.92-21.58Z"/>
      <path class="cls-1" d="m337.58,330.94l26.53,5c1.38,0,2.5,1.12,2.5,2.5v82.46h-31.53v-87.46c0-1.38,1.12-2.5,2.5-2.5Z"/>
      <path class="cls-1" d="m421.95,334.38h21.38v23.53h-20.55v62.98h-31.49v-62.98h-13.09v-23.53h13.09v-2.32c0-21.54,13.42-35.63,37.45-35.63,7.62,0,15.74,1.49,20.88,4.64l-6.87,19.58c-.48,1.36-2,2.02-3.33,1.47-2.18-.89-4.65-1.49-7.04-1.49-6.63,0-10.44,3.81-10.44,11.77v1.99Z"/>
      <path class="cls-1" d="m537.46,371.52v49.88h-29.33v-11.6c-4.47,8.62-13.42,13.09-26.52,13.09-21.54,0-33.48-12.1-33.48-27.68,0-16.57,12.1-26.85,39.94-26.85h17.9c-.5-9.12-6.63-14.25-19.06-14.25-7.63,0-16.03,2.34-22.11,6.2-1.24.79-2.89.29-3.54-1.02l-9.31-18.77c10.27-6.79,25.52-10.44,39.61-10.44,29.17,0,45.91,12.93,45.91,41.43Zm-31.49,21.05v-7.79h-13.59c-10.11,0-13.75,3.65-13.75,9.11s4.31,9.12,11.77,9.12c6.96,0,13.09-3.31,15.58-10.44Z"/>
      <path class="cls-1" d="m617.5,329.58v25.56c0,1.47-1.27,2.62-2.74,2.49s-2.89-.21-4.39-.21c-12.76,0-21.54,6.46-21.54,22.21v41.27h-31.49v-89.82h27.5c1.38,0,2.5,1.12,2.5,2.5v8.27c6.46-8.12,16.9-12.26,30.16-12.26Z"/>
      <path class="cls-1" d="m783.72,369.52v51.38h-31.49v-46.24c0-12.93-5.3-18.4-13.59-18.4-9.12,0-15.74,6.13-15.74,20.05v44.58h-31.49v-46.24c0-12.93-5.14-18.4-13.59-18.4-9.28,0-15.91,6.13-15.91,20.05v44.58h-31.49v-89.82h27.5c1.38,0,2.5,1.12,2.5,2.5v6.95c6.79-7.29,16.24-10.94,26.85-10.94,12.26,0,22.7,4.47,29,14.09,7.13-8.95,18.23-14.09,31.16-14.09,20.88,0,36.29,12.1,36.29,39.94Z"/>
    </g>
  </g>
</svg>