<?xml version="1.0" encoding="UTF-8"?>
<svg id="Layer_2" data-name="Layer 2" xmlns="http://www.w3.org/2000/svg" viewBox="0 0 537.68 487.86">
  <defs>
    <style>
      .cls-1 {
        stroke-width: 0px;
      }
    </style>
  </defs>
  <g id="Layer_1-2" data-name="Layer 1">
    <g>
      <path class="cls-1" d="m222.25,383.11c-1.01-18.07,3.87-34.4,12.72-49.96,12.35-21.7,27.28-41.29,45.13-58.79,15.49-15.18,27.75-32.59,33.37-53.95,5.12-19.48,5.14-39.11.16-58.55-10-38.98-33.63-66.84-70.11-83.69-38.05-17.57-76.23-16.79-113.28,2.08-51.4,26.18-76.88,83.25-62.35,137.65,8.82,33.03,30.04,54.63,62.35,67.36,33.34,13.14,58.15,36.79,72.28,70.51,5.8,13.85,7.8,28.43,8,43.27.24,17.17-.01,34.35.11,51.53.02,3.32-.96,3.86-3.94,2.82-15.55-5.42-30.77-11.58-45.52-18.92-3.06-1.52-3.32-3.65-3-6.62,1.53-13.94,1.62-27.95-2.78-41.34-7.76-23.58-23.37-39.91-46.72-48.99-13.83-5.38-28.17-9.74-40.67-18.18-29.55-19.96-49.73-47.01-60.01-81.05C-8.09,185.06.67,135.02,29.04,87.97c15.01-24.9,35.93-43.89,60.52-59.21,19.89-12.4,41.19-20.82,64.09-25.38,20.24-4.03,40.58-4.34,60.99-1.52,34.31,4.73,65.45,17.15,92.68,38.71,34.23,27.11,58.64,60.95,69.03,103.85,6.19,25.55,6.91,51.37,1.48,77.25-6.09,29.02-18.27,55.01-37.98,77.31-7.83,8.86-16.88,16.35-26.36,23.38-16.29,12.08-28.24,27.34-34.02,47.03-1.44,4.92-2.18,9.95-2.32,15.1-.67,24.58.93,68.06,1.71,92.6.05,1.42.06,2.84.07,4.26.06,6.99.06,6.94-6.69,6.18-14.67-1.67-30.92-4.07-45.3-7.45-3.33-.78-4.7-2.05-4.65-5.63.19-14.33.24-47.63.24-61.96,0,0,.27-19.61-.27-29.37Z"/>
      <path class="cls-1" d="m335.08,412.98c-.83-20,3.04-38.93,13.37-56.29,10.8-18.15,26.13-31.38,44.47-41.5,9.87-5.45,20.65-7.78,31.47-10.12,26.99-5.82,49.35-18.67,63.23-43.33,16.61-29.5,16.41-59.15-2.06-87.75-16.52-25.59-40.79-37.66-71.1-37.79-4.4-.02-8.8.06-13.19.31-2.55.15-3.92-.55-4.38-3.27-2.22-13.03-5.96-25.68-10.22-38.17-.95-2.78.17-3.49,2.65-3.78,7.92-.94,15.88-1.2,23.81-.51,21.45,1.86,42.15,6.85,60.49,18.44,39.82,25.16,62.82,60.69,64.02,108.62.89,35.5-10.34,67.1-33.49,93.99-17.83,20.71-40.05,34.88-66.98,41.11-10.32,2.39-19.95,6.54-28.72,12.5-16.1,10.93-23.83,26.63-24.93,45.66-.27,4.73-1.72,6.93-6.27,8.38-12.02,3.81-23.87,8.2-35.78,12.38-5.78,2.03-6.13,1.88-6.35-4.4-.17-4.82-.03-9.65-.03-14.48Z"/>
    </g>
  </g>
</svg>