<?xml version="1.0" encoding="UTF-8"?>
<svg id="Layer_2" data-name="Layer 2" xmlns="http://www.w3.org/2000/svg" viewBox="0 0 783.72 126.46">
  <defs>
    <style>
      .cls-1 {
        stroke-width: 0px;
      }
    </style>
  </defs>
  <g id="Layer_1-2" data-name="Layer 1">
    <g>
      <path class="cls-1" d="m95.76,73.01v51.45h-31.53v-46.31c0-12.95-5.64-18.42-14.77-18.42-10.12,0-17.92,6.31-17.92,21.24v43.48H0V3.81C0,2.43,1.12,1.31,2.5,1.31h26.53c1.38,0,2.5,1.12,2.5,2.5v38.99c6.97-6.47,16.43-9.79,27.05-9.79,21.08,0,37.18,12.12,37.18,40Z"/>
      <path class="cls-1" d="m199.82,74.5v49.96h-29.38v-11.62c-4.48,8.63-13.44,13.11-26.56,13.11-21.58,0-33.53-12.12-33.53-27.72,0-16.6,12.12-26.89,40-26.89h17.92c-.5-9.13-6.64-14.27-19.09-14.27-7.64,0-16.06,2.34-22.15,6.22-1.24.79-2.89.29-3.54-1.02l-9.33-18.8c10.29-6.8,25.56-10.46,39.67-10.46,29.21,0,45.97,12.95,45.97,41.49Zm-31.53,21.08v-7.8h-13.61c-10.12,0-13.78,3.65-13.78,9.13s4.31,9.13,11.78,9.13c6.97,0,13.11-3.32,15.6-10.46Z"/>
      <path class="cls-1" d="m320.48,79.32c0,28.71-19.75,46.64-44.15,46.64-11.78,0-20.58-3.32-26.56-10.46v8.96h-30.04V3.81c0-1.38,1.12-2.5,2.5-2.5h26.53c1.38,0,2.5,1.12,2.5,2.5v38.49c6.14-6.31,14.61-9.29,25.06-9.29,24.4,0,44.15,17.76,44.15,46.31Zm-31.87,0c0-13.61-8.3-21.24-18.92-21.24s-18.92,7.63-18.92,21.24,8.3,21.58,18.92,21.58,18.92-7.8,18.92-21.58Z"/>
      <path class="cls-1" d="m337.58,34.5l26.53,5c1.38,0,2.5,1.12,2.5,2.5v82.46h-31.53V37c0-1.38,1.12-2.5,2.5-2.5Z"/>
      <path class="cls-1" d="m421.95,37.95h21.38v23.53h-20.55v62.98h-31.49v-62.98h-13.09v-23.53h13.09v-2.32c0-21.54,13.42-35.63,37.45-35.63,7.62,0,15.74,1.49,20.88,4.64l-6.87,19.58c-.48,1.36-2,2.02-3.33,1.47-2.18-.89-4.65-1.49-7.04-1.49-6.63,0-10.44,3.81-10.44,11.77v1.99Z"/>
      <path class="cls-1" d="m537.46,75.08v49.88h-29.33v-11.6c-4.47,8.62-13.42,13.09-26.52,13.09-21.54,0-33.48-12.1-33.48-27.68,0-16.57,12.1-26.85,39.94-26.85h17.9c-.5-9.12-6.63-14.25-19.06-14.25-7.63,0-16.03,2.34-22.11,6.2-1.24.79-2.89.29-3.54-1.02l-9.31-18.77c10.27-6.79,25.52-10.44,39.61-10.44,29.17,0,45.91,12.93,45.91,41.43Zm-31.49,21.05v-7.79h-13.59c-10.11,0-13.75,3.65-13.75,9.11s4.31,9.12,11.77,9.12c6.96,0,13.09-3.31,15.58-10.44Z"/>
      <path class="cls-1" d="m617.5,33.15v25.56c0,1.47-1.27,2.62-2.74,2.49s-2.89-.21-4.39-.21c-12.76,0-21.54,6.46-21.54,22.21v41.27h-31.49V34.64h27.5c1.38,0,2.5,1.12,2.5,2.5v8.27c6.46-8.12,16.9-12.26,30.16-12.26Z"/>
      <path class="cls-1" d="m783.72,73.08v51.38h-31.49v-46.24c0-12.93-5.3-18.4-13.59-18.4-9.12,0-15.74,6.13-15.74,20.05v44.58h-31.49v-46.24c0-12.93-5.14-18.4-13.59-18.4-9.28,0-15.91,6.13-15.91,20.05v44.58h-31.49V34.64h27.5c1.38,0,2.5,1.12,2.5,2.5v6.95c6.79-7.29,16.24-10.94,26.85-10.94,12.26,0,22.7,4.47,29,14.09,7.13-8.95,18.23-14.09,31.16-14.09,20.88,0,36.29,12.1,36.29,39.94Z"/>
    </g>
  </g>
</svg>