<?xml version="1.0" encoding="UTF-8"?>
<svg id="Layer_2" data-name="Layer 2" xmlns="http://www.w3.org/2000/svg" viewBox="0 0 506 506">
  <defs>
    <style>
      .cls-1 {
        fill: #517820;
      }

      .cls-1, .cls-2, .cls-3 {
        stroke-width: 0px;
      }

      .cls-2 {
        fill: #7fb036;
      }

      .cls-3 {
        fill: #fff;
      }
    </style>
  </defs>
  <g id="Layer_1-2" data-name="Layer 1">
    <g>
      <circle class="cls-3" cx="253" cy="253" r="253"/>
      <g>
        <path class="cls-2" d="m220.42,371.51c-.7-12.64,2.71-24.06,8.9-34.93,8.63-15.18,19.08-28.88,31.56-41.11,10.83-10.62,19.41-22.79,23.33-37.73,3.58-13.63,3.6-27.35.11-40.94-7-27.26-23.52-46.74-49.03-58.52-26.61-12.29-53.31-11.74-79.22,1.45-35.94,18.31-53.76,58.21-43.6,96.26,6.17,23.1,21.01,38.2,43.6,47.1,23.32,9.19,40.66,25.73,50.55,49.3,4.06,9.68,5.45,19.88,5.6,30.26.17,12.01,0,24.02.08,36.03.02,2.32-.67,2.7-2.76,1.97-10.87-3.79-21.52-8.1-31.83-13.23-2.14-1.06-2.32-2.55-2.1-4.63,1.07-9.75,1.14-19.54-1.95-28.91-5.42-16.49-16.34-27.91-32.67-34.26-9.67-3.76-19.7-6.81-28.44-12.72-20.67-13.96-34.78-32.87-41.97-56.68-11.24-37.21-5.12-72.21,14.72-105.11,10.5-17.42,25.12-30.69,42.32-41.41,13.91-8.67,28.8-14.56,44.82-17.75,14.15-2.82,28.37-3.04,42.65-1.07,23.99,3.31,45.77,11.99,64.81,27.07,23.94,18.96,41,42.62,48.27,72.62,4.33,17.87,4.83,35.92,1.04,54.02-4.26,20.29-12.78,38.47-26.56,54.06-5.47,6.19-11.81,11.44-18.43,16.35-11.39,8.45-19.75,19.12-23.79,32.89-1.01,3.44-1.52,6.96-1.62,10.56-.47,17.19.65,47.6,1.2,64.76.03.99.04,1.99.05,2.98.04,4.88.04,4.86-4.68,4.32-10.26-1.17-21.62-2.85-31.68-5.21-2.33-.55-3.28-1.43-3.25-3.94.13-10.02.17-33.31.17-43.33,0,0,.19-13.71-.19-20.54Z"/>
        <path class="cls-1" d="m299.32,392.4c-.58-13.99,2.13-27.22,9.35-39.36,7.55-12.69,18.28-21.95,31.1-29.02,6.9-3.81,14.44-5.44,22-7.07,18.88-4.07,34.51-13.06,44.22-30.3,11.61-20.63,11.47-41.36-1.44-61.36-11.55-17.9-28.52-26.34-49.72-26.43-3.08-.01-6.16.04-9.23.21-1.78.1-2.74-.38-3.06-2.28-1.55-9.11-4.17-17.96-7.15-26.69-.66-1.95.12-2.44,1.85-2.64,5.54-.65,11.1-.84,16.65-.36,15,1.3,29.47,4.79,42.3,12.9,27.85,17.6,43.93,42.44,44.77,75.96.62,24.82-7.23,46.92-23.42,65.73-12.47,14.48-28.01,24.39-46.84,28.75-7.22,1.67-13.95,4.57-20.08,8.74-11.26,7.64-16.66,18.62-17.43,31.93-.19,3.31-1.2,4.85-4.39,5.86-8.41,2.67-16.69,5.73-25.02,8.65-4.05,1.42-4.29,1.31-4.44-3.07-.12-3.37-.02-6.75-.02-10.12Z"/>
      </g>
    </g>
  </g>
</svg>